<mxfile host="app.diagrams.net" modified="2021-06-16T09:29:06.271Z" agent="5.0 (Windows NT 10.0; Win64; x64) AppleWebKit/537.36 (KHTML, like Gecko) Chrome/91.0.4472.106 Safari/537.36" etag="oJG-Qh0ykH5GIWBXagxg" version="14.7.9" type="github">
  <diagram id="lKoHrc5MSymKsgjGN5dv" name="Page-1">
    <mxGraphModel dx="5549" dy="450" grid="1" gridSize="10" guides="1" tooltips="1" connect="1" arrows="1" fold="1" page="1" pageScale="1" pageWidth="4681" pageHeight="3300" background="#ffffff" math="0" shadow="0">
      <root>
        <mxCell id="0" />
        <mxCell id="1" parent="0" />
        <mxCell id="k62wVjFiB16d4o9aMP6C-8" style="edgeStyle=orthogonalEdgeStyle;rounded=0;orthogonalLoop=1;jettySize=auto;html=1;entryX=0.5;entryY=0;entryDx=0;entryDy=0;" parent="1" source="k62wVjFiB16d4o9aMP6C-5" target="k62wVjFiB16d4o9aMP6C-6" edge="1">
          <mxGeometry relative="1" as="geometry" />
        </mxCell>
        <mxCell id="k62wVjFiB16d4o9aMP6C-9" style="edgeStyle=orthogonalEdgeStyle;rounded=0;orthogonalLoop=1;jettySize=auto;html=1;entryX=0.5;entryY=0;entryDx=0;entryDy=0;" parent="1" source="k62wVjFiB16d4o9aMP6C-5" target="k62wVjFiB16d4o9aMP6C-7" edge="1">
          <mxGeometry relative="1" as="geometry" />
        </mxCell>
        <mxCell id="k62wVjFiB16d4o9aMP6C-5" value="&lt;h1&gt;Improvement in Food Resources&lt;/h1&gt;" style="rounded=0;whiteSpace=wrap;html=1;fillColor=#dae8fc;strokeColor=#6c8ebf;" parent="1" vertex="1">
          <mxGeometry x="180" y="40" width="480" height="60" as="geometry" />
        </mxCell>
        <mxCell id="k62wVjFiB16d4o9aMP6C-13" style="edgeStyle=orthogonalEdgeStyle;rounded=0;orthogonalLoop=1;jettySize=auto;html=1;exitX=0.5;exitY=1;exitDx=0;exitDy=0;" parent="1" source="k62wVjFiB16d4o9aMP6C-6" target="k62wVjFiB16d4o9aMP6C-10" edge="1">
          <mxGeometry relative="1" as="geometry" />
        </mxCell>
        <mxCell id="k62wVjFiB16d4o9aMP6C-14" style="edgeStyle=orthogonalEdgeStyle;rounded=0;orthogonalLoop=1;jettySize=auto;html=1;entryX=0.5;entryY=0;entryDx=0;entryDy=0;" parent="1" source="k62wVjFiB16d4o9aMP6C-6" target="k62wVjFiB16d4o9aMP6C-12" edge="1">
          <mxGeometry relative="1" as="geometry" />
        </mxCell>
        <mxCell id="k62wVjFiB16d4o9aMP6C-15" style="edgeStyle=orthogonalEdgeStyle;rounded=0;orthogonalLoop=1;jettySize=auto;html=1;entryX=0.5;entryY=0;entryDx=0;entryDy=0;" parent="1" source="k62wVjFiB16d4o9aMP6C-6" target="k62wVjFiB16d4o9aMP6C-11" edge="1">
          <mxGeometry relative="1" as="geometry" />
        </mxCell>
        <mxCell id="k62wVjFiB16d4o9aMP6C-6" value="&lt;h2&gt;Agriculture&lt;/h2&gt;" style="rounded=0;whiteSpace=wrap;html=1;fillColor=#d5e8d4;strokeColor=#82b366;" parent="1" vertex="1">
          <mxGeometry x="40" y="140" width="240" height="50" as="geometry" />
        </mxCell>
        <mxCell id="k62wVjFiB16d4o9aMP6C-20" style="edgeStyle=orthogonalEdgeStyle;rounded=0;orthogonalLoop=1;jettySize=auto;html=1;entryX=0.5;entryY=0;entryDx=0;entryDy=0;" parent="1" source="k62wVjFiB16d4o9aMP6C-7" target="k62wVjFiB16d4o9aMP6C-16" edge="1">
          <mxGeometry relative="1" as="geometry" />
        </mxCell>
        <mxCell id="k62wVjFiB16d4o9aMP6C-21" style="edgeStyle=orthogonalEdgeStyle;rounded=0;orthogonalLoop=1;jettySize=auto;html=1;entryX=0.5;entryY=0;entryDx=0;entryDy=0;" parent="1" source="k62wVjFiB16d4o9aMP6C-7" target="k62wVjFiB16d4o9aMP6C-17" edge="1">
          <mxGeometry relative="1" as="geometry" />
        </mxCell>
        <mxCell id="k62wVjFiB16d4o9aMP6C-22" style="edgeStyle=orthogonalEdgeStyle;rounded=0;orthogonalLoop=1;jettySize=auto;html=1;entryX=0.5;entryY=0;entryDx=0;entryDy=0;" parent="1" source="k62wVjFiB16d4o9aMP6C-7" target="k62wVjFiB16d4o9aMP6C-18" edge="1">
          <mxGeometry relative="1" as="geometry" />
        </mxCell>
        <mxCell id="k62wVjFiB16d4o9aMP6C-7" value="&lt;h2&gt;Animal Husbandry&lt;/h2&gt;" style="rounded=0;whiteSpace=wrap;html=1;fillColor=#d5e8d4;strokeColor=#82b366;" parent="1" vertex="1">
          <mxGeometry x="610" y="140" width="240" height="50" as="geometry" />
        </mxCell>
        <mxCell id="k62wVjFiB16d4o9aMP6C-28" style="edgeStyle=orthogonalEdgeStyle;rounded=0;orthogonalLoop=1;jettySize=auto;html=1;exitX=0;exitY=0.5;exitDx=0;exitDy=0;entryX=0;entryY=0.5;entryDx=0;entryDy=0;" parent="1" source="k62wVjFiB16d4o9aMP6C-10" target="k62wVjFiB16d4o9aMP6C-26" edge="1">
          <mxGeometry relative="1" as="geometry" />
        </mxCell>
        <mxCell id="k62wVjFiB16d4o9aMP6C-29" style="edgeStyle=orthogonalEdgeStyle;rounded=0;orthogonalLoop=1;jettySize=auto;html=1;exitX=0;exitY=0.5;exitDx=0;exitDy=0;entryX=0;entryY=0.5;entryDx=0;entryDy=0;" parent="1" source="k62wVjFiB16d4o9aMP6C-10" target="k62wVjFiB16d4o9aMP6C-27" edge="1">
          <mxGeometry relative="1" as="geometry" />
        </mxCell>
        <mxCell id="k62wVjFiB16d4o9aMP6C-10" value="&lt;h3&gt;Crop Variety Improvement&lt;/h3&gt;" style="rounded=0;whiteSpace=wrap;html=1;fillColor=#ffe6cc;strokeColor=#d79b00;" parent="1" vertex="1">
          <mxGeometry x="20" y="230" width="100" height="40" as="geometry" />
        </mxCell>
        <mxCell id="M5c5dAhxw1YWjsHR_SRw-8" style="edgeStyle=orthogonalEdgeStyle;rounded=0;orthogonalLoop=1;jettySize=auto;html=1;entryX=0;entryY=0.5;entryDx=0;entryDy=0;exitX=0.25;exitY=1;exitDx=0;exitDy=0;" edge="1" parent="1" source="k62wVjFiB16d4o9aMP6C-11" target="M5c5dAhxw1YWjsHR_SRw-7">
          <mxGeometry relative="1" as="geometry">
            <Array as="points">
              <mxPoint x="170" y="290" />
              <mxPoint x="140" y="290" />
              <mxPoint x="140" y="315" />
            </Array>
          </mxGeometry>
        </mxCell>
        <mxCell id="M5c5dAhxw1YWjsHR_SRw-16" style="edgeStyle=orthogonalEdgeStyle;rounded=0;orthogonalLoop=1;jettySize=auto;html=1;entryX=0;entryY=0.5;entryDx=0;entryDy=0;" edge="1" parent="1" source="k62wVjFiB16d4o9aMP6C-11" target="M5c5dAhxw1YWjsHR_SRw-15">
          <mxGeometry relative="1" as="geometry">
            <Array as="points">
              <mxPoint x="170" y="290" />
              <mxPoint x="140" y="290" />
              <mxPoint x="140" y="415" />
            </Array>
          </mxGeometry>
        </mxCell>
        <mxCell id="M5c5dAhxw1YWjsHR_SRw-28" style="edgeStyle=orthogonalEdgeStyle;rounded=0;orthogonalLoop=1;jettySize=auto;html=1;entryX=0;entryY=0.5;entryDx=0;entryDy=0;exitX=0.25;exitY=1;exitDx=0;exitDy=0;" edge="1" parent="1" source="k62wVjFiB16d4o9aMP6C-11" target="M5c5dAhxw1YWjsHR_SRw-27">
          <mxGeometry relative="1" as="geometry">
            <Array as="points">
              <mxPoint x="170" y="290" />
              <mxPoint x="140" y="290" />
              <mxPoint x="140" y="545" />
            </Array>
          </mxGeometry>
        </mxCell>
        <mxCell id="k62wVjFiB16d4o9aMP6C-11" value="&lt;h3&gt;Crop production Management&lt;/h3&gt;" style="rounded=0;whiteSpace=wrap;html=1;fillColor=#ffe6cc;strokeColor=#d79b00;" parent="1" vertex="1">
          <mxGeometry x="140" y="230" width="120" height="40" as="geometry" />
        </mxCell>
        <mxCell id="M5c5dAhxw1YWjsHR_SRw-4" value="" style="edgeStyle=orthogonalEdgeStyle;rounded=0;orthogonalLoop=1;jettySize=auto;html=1;" edge="1" parent="1" source="k62wVjFiB16d4o9aMP6C-12" target="M5c5dAhxw1YWjsHR_SRw-1">
          <mxGeometry relative="1" as="geometry" />
        </mxCell>
        <mxCell id="k62wVjFiB16d4o9aMP6C-12" value="&lt;h3&gt;Crop Protection Management&lt;/h3&gt;" style="rounded=0;whiteSpace=wrap;html=1;fillColor=#ffe6cc;strokeColor=#d79b00;" parent="1" vertex="1">
          <mxGeometry x="280" y="230" width="110" height="40" as="geometry" />
        </mxCell>
        <mxCell id="M5c5dAhxw1YWjsHR_SRw-45" style="edgeStyle=orthogonalEdgeStyle;rounded=0;orthogonalLoop=1;jettySize=auto;html=1;entryX=0;entryY=0.5;entryDx=0;entryDy=0;align=center;" edge="1" parent="1" source="k62wVjFiB16d4o9aMP6C-16" target="M5c5dAhxw1YWjsHR_SRw-36">
          <mxGeometry relative="1" as="geometry">
            <Array as="points">
              <mxPoint x="440" y="235" />
              <mxPoint x="440" y="360" />
            </Array>
          </mxGeometry>
        </mxCell>
        <mxCell id="M5c5dAhxw1YWjsHR_SRw-46" style="edgeStyle=orthogonalEdgeStyle;rounded=0;orthogonalLoop=1;jettySize=auto;html=1;entryX=0;entryY=0.5;entryDx=0;entryDy=0;align=center;" edge="1" parent="1" source="k62wVjFiB16d4o9aMP6C-16" target="M5c5dAhxw1YWjsHR_SRw-35">
          <mxGeometry relative="1" as="geometry">
            <Array as="points">
              <mxPoint x="440" y="235" />
              <mxPoint x="440" y="270" />
            </Array>
          </mxGeometry>
        </mxCell>
        <mxCell id="k62wVjFiB16d4o9aMP6C-16" value="&lt;h3&gt;Cattle Farming&lt;/h3&gt;" style="rounded=0;whiteSpace=wrap;html=1;fillColor=#ffe6cc;strokeColor=#d79b00;" parent="1" vertex="1">
          <mxGeometry x="460" y="220" width="120" height="30" as="geometry" />
        </mxCell>
        <mxCell id="M5c5dAhxw1YWjsHR_SRw-62" style="edgeStyle=orthogonalEdgeStyle;rounded=0;orthogonalLoop=1;jettySize=auto;html=1;entryX=0;entryY=0.5;entryDx=0;entryDy=0;align=center;" edge="1" parent="1" source="k62wVjFiB16d4o9aMP6C-17" target="M5c5dAhxw1YWjsHR_SRw-60">
          <mxGeometry relative="1" as="geometry">
            <Array as="points">
              <mxPoint x="600" y="245" />
              <mxPoint x="600" y="288" />
            </Array>
          </mxGeometry>
        </mxCell>
        <mxCell id="M5c5dAhxw1YWjsHR_SRw-63" style="edgeStyle=orthogonalEdgeStyle;rounded=0;orthogonalLoop=1;jettySize=auto;html=1;entryX=0;entryY=0.5;entryDx=0;entryDy=0;align=center;" edge="1" parent="1" source="k62wVjFiB16d4o9aMP6C-17" target="M5c5dAhxw1YWjsHR_SRw-61">
          <mxGeometry relative="1" as="geometry">
            <Array as="points">
              <mxPoint x="600" y="245" />
              <mxPoint x="600" y="325" />
            </Array>
          </mxGeometry>
        </mxCell>
        <mxCell id="k62wVjFiB16d4o9aMP6C-17" value="&lt;h3&gt;Poultry Farming&lt;/h3&gt;" style="rounded=0;whiteSpace=wrap;html=1;fillColor=#ffe6cc;strokeColor=#d79b00;" parent="1" vertex="1">
          <mxGeometry x="610" y="230" width="120" height="30" as="geometry" />
        </mxCell>
        <mxCell id="M5c5dAhxw1YWjsHR_SRw-55" style="edgeStyle=orthogonalEdgeStyle;rounded=0;orthogonalLoop=1;jettySize=auto;html=1;entryX=0;entryY=0.5;entryDx=0;entryDy=0;align=center;" edge="1" parent="1" source="k62wVjFiB16d4o9aMP6C-18" target="M5c5dAhxw1YWjsHR_SRw-49">
          <mxGeometry relative="1" as="geometry">
            <Array as="points">
              <mxPoint x="770" y="245" />
              <mxPoint x="770" y="288" />
            </Array>
          </mxGeometry>
        </mxCell>
        <mxCell id="M5c5dAhxw1YWjsHR_SRw-56" style="edgeStyle=orthogonalEdgeStyle;rounded=0;orthogonalLoop=1;jettySize=auto;html=1;entryX=0;entryY=0.5;entryDx=0;entryDy=0;align=center;" edge="1" parent="1" source="k62wVjFiB16d4o9aMP6C-18" target="M5c5dAhxw1YWjsHR_SRw-50">
          <mxGeometry relative="1" as="geometry">
            <Array as="points">
              <mxPoint x="770" y="245" />
              <mxPoint x="770" y="383" />
            </Array>
          </mxGeometry>
        </mxCell>
        <mxCell id="k62wVjFiB16d4o9aMP6C-18" value="&lt;h3&gt;Beekeeping&lt;/h3&gt;" style="rounded=0;whiteSpace=wrap;html=1;fillColor=#ffe6cc;strokeColor=#d79b00;" parent="1" vertex="1">
          <mxGeometry x="790" y="230" width="120" height="30" as="geometry" />
        </mxCell>
        <mxCell id="M5c5dAhxw1YWjsHR_SRw-70" style="edgeStyle=orthogonalEdgeStyle;rounded=0;orthogonalLoop=1;jettySize=auto;html=1;align=center;" edge="1" parent="1" source="k62wVjFiB16d4o9aMP6C-19" target="M5c5dAhxw1YWjsHR_SRw-68">
          <mxGeometry relative="1" as="geometry">
            <Array as="points">
              <mxPoint x="970" y="250" />
              <mxPoint x="970" y="250" />
            </Array>
          </mxGeometry>
        </mxCell>
        <mxCell id="M5c5dAhxw1YWjsHR_SRw-71" style="edgeStyle=orthogonalEdgeStyle;rounded=0;orthogonalLoop=1;jettySize=auto;html=1;align=center;" edge="1" parent="1" source="k62wVjFiB16d4o9aMP6C-19" target="M5c5dAhxw1YWjsHR_SRw-69">
          <mxGeometry relative="1" as="geometry">
            <Array as="points">
              <mxPoint x="1060" y="250" />
              <mxPoint x="1060" y="250" />
            </Array>
          </mxGeometry>
        </mxCell>
        <mxCell id="k62wVjFiB16d4o9aMP6C-19" value="&lt;h3&gt;Fish Production&lt;/h3&gt;" style="rounded=0;whiteSpace=wrap;html=1;fillColor=#ffe6cc;strokeColor=#d79b00;" parent="1" vertex="1">
          <mxGeometry x="960" y="210" width="110" height="30" as="geometry" />
        </mxCell>
        <mxCell id="k62wVjFiB16d4o9aMP6C-25" style="edgeStyle=orthogonalEdgeStyle;rounded=0;orthogonalLoop=1;jettySize=auto;html=1;entryX=0.5;entryY=0;entryDx=0;entryDy=0;exitX=1;exitY=0.5;exitDx=0;exitDy=0;" parent="1" source="k62wVjFiB16d4o9aMP6C-7" edge="1" target="k62wVjFiB16d4o9aMP6C-19">
          <mxGeometry relative="1" as="geometry">
            <mxPoint x="980" y="165" as="sourcePoint" />
            <mxPoint x="880" y="220" as="targetPoint" />
          </mxGeometry>
        </mxCell>
        <mxCell id="CCRM8Cbb4xVDo7kMdgdi-2" style="edgeStyle=orthogonalEdgeStyle;rounded=0;orthogonalLoop=1;jettySize=auto;html=1;entryX=0.5;entryY=0;entryDx=0;entryDy=0;" parent="1" source="k62wVjFiB16d4o9aMP6C-26" target="CCRM8Cbb4xVDo7kMdgdi-1" edge="1">
          <mxGeometry relative="1" as="geometry" />
        </mxCell>
        <mxCell id="k62wVjFiB16d4o9aMP6C-26" value="&lt;h4&gt;Hybridization&lt;/h4&gt;" style="rounded=0;whiteSpace=wrap;html=1;fillColor=#fff2cc;strokeColor=#d6b656;" parent="1" vertex="1">
          <mxGeometry x="20" y="290" width="100" height="30" as="geometry" />
        </mxCell>
        <mxCell id="k62wVjFiB16d4o9aMP6C-27" value="&lt;h4&gt;Genetically Modified Crops&lt;/h4&gt;" style="rounded=0;whiteSpace=wrap;html=1;fillColor=#fff2cc;strokeColor=#d6b656;" parent="1" vertex="1">
          <mxGeometry x="20" y="520" width="100" height="30" as="geometry" />
        </mxCell>
        <mxCell id="CCRM8Cbb4xVDo7kMdgdi-4" style="edgeStyle=orthogonalEdgeStyle;rounded=0;orthogonalLoop=1;jettySize=auto;html=1;" parent="1" source="CCRM8Cbb4xVDo7kMdgdi-1" target="CCRM8Cbb4xVDo7kMdgdi-3" edge="1">
          <mxGeometry relative="1" as="geometry" />
        </mxCell>
        <mxCell id="CCRM8Cbb4xVDo7kMdgdi-1" value="&lt;h5&gt;Intergeneric - between different genes&lt;/h5&gt;" style="rounded=0;whiteSpace=wrap;html=1;fillColor=#f8cecc;strokeColor=#b85450;" parent="1" vertex="1">
          <mxGeometry x="20" y="340" width="100" height="40" as="geometry" />
        </mxCell>
        <mxCell id="CCRM8Cbb4xVDo7kMdgdi-6" style="edgeStyle=orthogonalEdgeStyle;rounded=0;orthogonalLoop=1;jettySize=auto;html=1;entryX=0.5;entryY=0;entryDx=0;entryDy=0;" parent="1" source="CCRM8Cbb4xVDo7kMdgdi-3" target="CCRM8Cbb4xVDo7kMdgdi-5" edge="1">
          <mxGeometry relative="1" as="geometry" />
        </mxCell>
        <mxCell id="CCRM8Cbb4xVDo7kMdgdi-3" value="&lt;h5&gt;Interspecific - between different species&lt;/h5&gt;" style="rounded=0;whiteSpace=wrap;html=1;fillColor=#f8cecc;strokeColor=#b85450;" parent="1" vertex="1">
          <mxGeometry x="20" y="400" width="100" height="40" as="geometry" />
        </mxCell>
        <mxCell id="CCRM8Cbb4xVDo7kMdgdi-5" value="&lt;h5&gt;Intervarietal - between different varieties&lt;/h5&gt;" style="rounded=0;whiteSpace=wrap;html=1;fillColor=#f8cecc;strokeColor=#b85450;" parent="1" vertex="1">
          <mxGeometry x="20" y="460" width="100" height="40" as="geometry" />
        </mxCell>
        <mxCell id="M5c5dAhxw1YWjsHR_SRw-6" style="edgeStyle=orthogonalEdgeStyle;rounded=0;orthogonalLoop=1;jettySize=auto;html=1;" edge="1" parent="1" source="M5c5dAhxw1YWjsHR_SRw-1" target="M5c5dAhxw1YWjsHR_SRw-5">
          <mxGeometry relative="1" as="geometry" />
        </mxCell>
        <mxCell id="M5c5dAhxw1YWjsHR_SRw-1" value="&lt;h4&gt;From pest, weed, disease&lt;/h4&gt;" style="rounded=0;whiteSpace=wrap;html=1;fillColor=#fff2cc;strokeColor=#d6b656;" vertex="1" parent="1">
          <mxGeometry x="290" y="290" width="90" height="30" as="geometry" />
        </mxCell>
        <mxCell id="M5c5dAhxw1YWjsHR_SRw-5" value="&lt;h4&gt;By weedicides and pesticides&lt;/h4&gt;" style="rounded=0;whiteSpace=wrap;html=1;fillColor=#fff2cc;strokeColor=#d6b656;" vertex="1" parent="1">
          <mxGeometry x="290" y="340" width="90" height="30" as="geometry" />
        </mxCell>
        <mxCell id="M5c5dAhxw1YWjsHR_SRw-11" style="edgeStyle=orthogonalEdgeStyle;rounded=0;orthogonalLoop=1;jettySize=auto;html=1;entryX=1;entryY=0.5;entryDx=0;entryDy=0;" edge="1" parent="1" source="M5c5dAhxw1YWjsHR_SRw-7" target="M5c5dAhxw1YWjsHR_SRw-9">
          <mxGeometry relative="1" as="geometry">
            <Array as="points">
              <mxPoint x="270" y="320" />
              <mxPoint x="270" y="350" />
            </Array>
          </mxGeometry>
        </mxCell>
        <mxCell id="M5c5dAhxw1YWjsHR_SRw-13" style="edgeStyle=orthogonalEdgeStyle;rounded=0;orthogonalLoop=1;jettySize=auto;html=1;entryX=1;entryY=0.5;entryDx=0;entryDy=0;" edge="1" parent="1" source="M5c5dAhxw1YWjsHR_SRw-7" target="M5c5dAhxw1YWjsHR_SRw-12">
          <mxGeometry relative="1" as="geometry">
            <Array as="points">
              <mxPoint x="270" y="320" />
              <mxPoint x="270" y="380" />
            </Array>
          </mxGeometry>
        </mxCell>
        <mxCell id="M5c5dAhxw1YWjsHR_SRw-7" value="&lt;h4&gt;Nutrient Management&lt;/h4&gt;" style="rounded=0;whiteSpace=wrap;html=1;fillColor=#fff2cc;strokeColor=#d6b656;" vertex="1" parent="1">
          <mxGeometry x="160" y="300" width="100" height="30" as="geometry" />
        </mxCell>
        <mxCell id="M5c5dAhxw1YWjsHR_SRw-9" value="&lt;h5&gt;Organic Manure&lt;/h5&gt;" style="rounded=0;whiteSpace=wrap;html=1;direction=east;fillColor=#f8cecc;strokeColor=#b85450;" vertex="1" parent="1">
          <mxGeometry x="150" y="340" width="100" height="20" as="geometry" />
        </mxCell>
        <mxCell id="M5c5dAhxw1YWjsHR_SRw-12" value="&lt;h5&gt;Artificial Fertilizer&lt;/h5&gt;" style="rounded=0;whiteSpace=wrap;html=1;fillColor=#f8cecc;strokeColor=#b85450;" vertex="1" parent="1">
          <mxGeometry x="150" y="370" width="100" height="20" as="geometry" />
        </mxCell>
        <mxCell id="M5c5dAhxw1YWjsHR_SRw-18" style="edgeStyle=orthogonalEdgeStyle;rounded=0;orthogonalLoop=1;jettySize=auto;html=1;entryX=1;entryY=0.5;entryDx=0;entryDy=0;" edge="1" parent="1" source="M5c5dAhxw1YWjsHR_SRw-15" target="M5c5dAhxw1YWjsHR_SRw-17">
          <mxGeometry relative="1" as="geometry">
            <Array as="points">
              <mxPoint x="280" y="415" />
              <mxPoint x="280" y="450" />
            </Array>
          </mxGeometry>
        </mxCell>
        <mxCell id="M5c5dAhxw1YWjsHR_SRw-22" style="edgeStyle=orthogonalEdgeStyle;rounded=0;orthogonalLoop=1;jettySize=auto;html=1;entryX=1;entryY=0.75;entryDx=0;entryDy=0;" edge="1" parent="1" source="M5c5dAhxw1YWjsHR_SRw-15" target="M5c5dAhxw1YWjsHR_SRw-19">
          <mxGeometry relative="1" as="geometry">
            <Array as="points">
              <mxPoint x="280" y="415" />
              <mxPoint x="280" y="485" />
            </Array>
          </mxGeometry>
        </mxCell>
        <mxCell id="M5c5dAhxw1YWjsHR_SRw-26" style="edgeStyle=orthogonalEdgeStyle;rounded=0;orthogonalLoop=1;jettySize=auto;html=1;entryX=1;entryY=0.5;entryDx=0;entryDy=0;" edge="1" parent="1" source="M5c5dAhxw1YWjsHR_SRw-15" target="M5c5dAhxw1YWjsHR_SRw-21">
          <mxGeometry relative="1" as="geometry">
            <Array as="points">
              <mxPoint x="280" y="415" />
              <mxPoint x="280" y="510" />
            </Array>
          </mxGeometry>
        </mxCell>
        <mxCell id="M5c5dAhxw1YWjsHR_SRw-15" value="&lt;h4&gt;Irrigation&lt;/h4&gt;" style="rounded=0;whiteSpace=wrap;html=1;fillColor=#fff2cc;strokeColor=#d6b656;" vertex="1" parent="1">
          <mxGeometry x="160" y="400" width="100" height="30" as="geometry" />
        </mxCell>
        <mxCell id="M5c5dAhxw1YWjsHR_SRw-17" value="&lt;h5&gt;Sprinkler Irrigation&lt;/h5&gt;" style="rounded=0;whiteSpace=wrap;html=1;fillColor=#f8cecc;strokeColor=#b85450;" vertex="1" parent="1">
          <mxGeometry x="150" y="440" width="100" height="20" as="geometry" />
        </mxCell>
        <mxCell id="M5c5dAhxw1YWjsHR_SRw-19" value="&lt;h5&gt;Pot Irrigation&lt;/h5&gt;" style="rounded=0;whiteSpace=wrap;html=1;fillColor=#f8cecc;strokeColor=#b85450;" vertex="1" parent="1">
          <mxGeometry x="150" y="470" width="100" height="20" as="geometry" />
        </mxCell>
        <mxCell id="M5c5dAhxw1YWjsHR_SRw-20" style="edgeStyle=orthogonalEdgeStyle;rounded=0;orthogonalLoop=1;jettySize=auto;html=1;exitX=0.5;exitY=1;exitDx=0;exitDy=0;" edge="1" parent="1" source="M5c5dAhxw1YWjsHR_SRw-19" target="M5c5dAhxw1YWjsHR_SRw-19">
          <mxGeometry relative="1" as="geometry" />
        </mxCell>
        <mxCell id="M5c5dAhxw1YWjsHR_SRw-21" value="&lt;h5&gt;Drip Irrigation&lt;/h5&gt;" style="rounded=0;whiteSpace=wrap;html=1;fillColor=#f8cecc;strokeColor=#b85450;" vertex="1" parent="1">
          <mxGeometry x="150" y="500" width="100" height="20" as="geometry" />
        </mxCell>
        <mxCell id="M5c5dAhxw1YWjsHR_SRw-32" style="edgeStyle=orthogonalEdgeStyle;rounded=0;orthogonalLoop=1;jettySize=auto;html=1;entryX=1;entryY=0.5;entryDx=0;entryDy=0;" edge="1" parent="1" source="M5c5dAhxw1YWjsHR_SRw-27" target="M5c5dAhxw1YWjsHR_SRw-29">
          <mxGeometry relative="1" as="geometry">
            <Array as="points">
              <mxPoint x="280" y="545" />
              <mxPoint x="280" y="580" />
            </Array>
          </mxGeometry>
        </mxCell>
        <mxCell id="M5c5dAhxw1YWjsHR_SRw-33" style="edgeStyle=orthogonalEdgeStyle;rounded=0;orthogonalLoop=1;jettySize=auto;html=1;entryX=1;entryY=0.75;entryDx=0;entryDy=0;" edge="1" parent="1" source="M5c5dAhxw1YWjsHR_SRw-27" target="M5c5dAhxw1YWjsHR_SRw-30">
          <mxGeometry relative="1" as="geometry">
            <Array as="points">
              <mxPoint x="280" y="545" />
              <mxPoint x="280" y="615" />
            </Array>
          </mxGeometry>
        </mxCell>
        <mxCell id="M5c5dAhxw1YWjsHR_SRw-34" style="edgeStyle=orthogonalEdgeStyle;rounded=0;orthogonalLoop=1;jettySize=auto;html=1;entryX=1;entryY=0.5;entryDx=0;entryDy=0;" edge="1" parent="1" source="M5c5dAhxw1YWjsHR_SRw-27" target="M5c5dAhxw1YWjsHR_SRw-31">
          <mxGeometry relative="1" as="geometry">
            <Array as="points">
              <mxPoint x="280" y="545" />
              <mxPoint x="280" y="640" />
            </Array>
          </mxGeometry>
        </mxCell>
        <mxCell id="M5c5dAhxw1YWjsHR_SRw-27" value="&lt;h4&gt;Cropping Patterns&lt;/h4&gt;" style="rounded=0;whiteSpace=wrap;html=1;fillColor=#fff2cc;strokeColor=#d6b656;" vertex="1" parent="1">
          <mxGeometry x="170" y="530" width="90" height="30" as="geometry" />
        </mxCell>
        <mxCell id="M5c5dAhxw1YWjsHR_SRw-29" value="&lt;h5&gt;Intercropping&lt;/h5&gt;" style="rounded=0;whiteSpace=wrap;html=1;fillColor=#f8cecc;strokeColor=#b85450;" vertex="1" parent="1">
          <mxGeometry x="150" y="570" width="100" height="20" as="geometry" />
        </mxCell>
        <mxCell id="M5c5dAhxw1YWjsHR_SRw-30" value="&lt;h5&gt;Crop Rotation&lt;/h5&gt;" style="rounded=0;whiteSpace=wrap;html=1;fillColor=#f8cecc;strokeColor=#b85450;" vertex="1" parent="1">
          <mxGeometry x="150" y="600" width="100" height="20" as="geometry" />
        </mxCell>
        <mxCell id="M5c5dAhxw1YWjsHR_SRw-31" value="&lt;h5&gt;Mixed Cropping&lt;/h5&gt;" style="rounded=0;whiteSpace=wrap;html=1;fillColor=#f8cecc;strokeColor=#b85450;" vertex="1" parent="1">
          <mxGeometry x="150" y="630" width="100" height="20" as="geometry" />
        </mxCell>
        <mxCell id="M5c5dAhxw1YWjsHR_SRw-47" style="edgeStyle=orthogonalEdgeStyle;rounded=0;orthogonalLoop=1;jettySize=auto;html=1;entryX=1;entryY=0.5;entryDx=0;entryDy=0;align=center;" edge="1" parent="1" source="M5c5dAhxw1YWjsHR_SRw-35" target="M5c5dAhxw1YWjsHR_SRw-37">
          <mxGeometry relative="1" as="geometry">
            <Array as="points">
              <mxPoint x="590" y="270" />
              <mxPoint x="590" y="300" />
            </Array>
          </mxGeometry>
        </mxCell>
        <mxCell id="M5c5dAhxw1YWjsHR_SRw-48" style="edgeStyle=orthogonalEdgeStyle;rounded=0;orthogonalLoop=1;jettySize=auto;html=1;entryX=1;entryY=0.5;entryDx=0;entryDy=0;align=center;" edge="1" parent="1" source="M5c5dAhxw1YWjsHR_SRw-35" target="M5c5dAhxw1YWjsHR_SRw-38">
          <mxGeometry relative="1" as="geometry">
            <Array as="points">
              <mxPoint x="590" y="270" />
              <mxPoint x="590" y="330" />
            </Array>
          </mxGeometry>
        </mxCell>
        <mxCell id="M5c5dAhxw1YWjsHR_SRw-35" value="&lt;h4&gt;Milch Cattle&lt;/h4&gt;" style="rounded=0;whiteSpace=wrap;html=1;fillColor=#fff2cc;strokeColor=#d6b656;" vertex="1" parent="1">
          <mxGeometry x="470" y="260" width="110" height="20" as="geometry" />
        </mxCell>
        <mxCell id="M5c5dAhxw1YWjsHR_SRw-42" style="edgeStyle=orthogonalEdgeStyle;rounded=0;orthogonalLoop=1;jettySize=auto;html=1;entryX=0;entryY=0.5;entryDx=0;entryDy=0;" edge="1" parent="1" source="M5c5dAhxw1YWjsHR_SRw-36" target="M5c5dAhxw1YWjsHR_SRw-40">
          <mxGeometry relative="1" as="geometry">
            <Array as="points">
              <mxPoint x="525" y="380" />
              <mxPoint x="450" y="380" />
              <mxPoint x="450" y="400" />
            </Array>
          </mxGeometry>
        </mxCell>
        <mxCell id="M5c5dAhxw1YWjsHR_SRw-44" style="edgeStyle=orthogonalEdgeStyle;rounded=0;orthogonalLoop=1;jettySize=auto;html=1;entryX=1;entryY=0.5;entryDx=0;entryDy=0;align=center;" edge="1" parent="1" source="M5c5dAhxw1YWjsHR_SRw-36" target="M5c5dAhxw1YWjsHR_SRw-39">
          <mxGeometry relative="1" as="geometry">
            <Array as="points">
              <mxPoint x="525" y="380" />
              <mxPoint x="600" y="380" />
              <mxPoint x="600" y="400" />
            </Array>
          </mxGeometry>
        </mxCell>
        <mxCell id="M5c5dAhxw1YWjsHR_SRw-36" value="&lt;h4&gt;Draught Cattle&lt;/h4&gt;" style="rounded=0;whiteSpace=wrap;html=1;fillColor=#fff2cc;strokeColor=#d6b656;" vertex="1" parent="1">
          <mxGeometry x="470" y="350" width="110" height="20" as="geometry" />
        </mxCell>
        <mxCell id="M5c5dAhxw1YWjsHR_SRw-37" value="&lt;h5&gt;COW (&lt;i&gt;Bos indicus&lt;/i&gt;)&lt;/h5&gt;" style="rounded=0;whiteSpace=wrap;html=1;fillColor=#f8cecc;strokeColor=#b85450;" vertex="1" parent="1">
          <mxGeometry x="450" y="290" width="120" height="20" as="geometry" />
        </mxCell>
        <mxCell id="M5c5dAhxw1YWjsHR_SRw-38" value="&lt;h5&gt;BUFFALO (&lt;i&gt;Bos bubalis)&lt;/i&gt;&lt;/h5&gt;" style="rounded=0;whiteSpace=wrap;html=1;fillColor=#f8cecc;strokeColor=#b85450;" vertex="1" parent="1">
          <mxGeometry x="450" y="320" width="120" height="20" as="geometry" />
        </mxCell>
        <mxCell id="M5c5dAhxw1YWjsHR_SRw-39" value="&lt;h5&gt;Oxen&lt;/h5&gt;" style="rounded=0;whiteSpace=wrap;html=1;fillColor=#f8cecc;strokeColor=#b85450;" vertex="1" parent="1">
          <mxGeometry x="540" y="390" width="40" height="20" as="geometry" />
        </mxCell>
        <mxCell id="M5c5dAhxw1YWjsHR_SRw-40" value="&lt;h5&gt;Buffalo&lt;/h5&gt;" style="rounded=0;whiteSpace=wrap;html=1;fillColor=#f8cecc;strokeColor=#b85450;" vertex="1" parent="1">
          <mxGeometry x="470" y="390" width="50" height="20" as="geometry" />
        </mxCell>
        <mxCell id="M5c5dAhxw1YWjsHR_SRw-53" style="edgeStyle=orthogonalEdgeStyle;rounded=0;orthogonalLoop=1;jettySize=auto;html=1;entryX=1;entryY=0.5;entryDx=0;entryDy=0;align=center;" edge="1" parent="1" source="M5c5dAhxw1YWjsHR_SRw-49" target="M5c5dAhxw1YWjsHR_SRw-51">
          <mxGeometry relative="1" as="geometry">
            <Array as="points">
              <mxPoint x="910" y="288" />
              <mxPoint x="910" y="320" />
            </Array>
          </mxGeometry>
        </mxCell>
        <mxCell id="M5c5dAhxw1YWjsHR_SRw-54" style="edgeStyle=orthogonalEdgeStyle;rounded=0;orthogonalLoop=1;jettySize=auto;html=1;entryX=1;entryY=0.5;entryDx=0;entryDy=0;align=center;" edge="1" parent="1" source="M5c5dAhxw1YWjsHR_SRw-49" target="M5c5dAhxw1YWjsHR_SRw-52">
          <mxGeometry relative="1" as="geometry">
            <Array as="points">
              <mxPoint x="910" y="288" />
              <mxPoint x="910" y="350" />
            </Array>
          </mxGeometry>
        </mxCell>
        <mxCell id="M5c5dAhxw1YWjsHR_SRw-49" value="&lt;h4&gt;Indian Bees&lt;/h4&gt;" style="rounded=0;whiteSpace=wrap;html=1;fillColor=#fff2cc;strokeColor=#d6b656;" vertex="1" parent="1">
          <mxGeometry x="790" y="275" width="110" height="25" as="geometry" />
        </mxCell>
        <mxCell id="M5c5dAhxw1YWjsHR_SRw-59" style="edgeStyle=orthogonalEdgeStyle;rounded=0;orthogonalLoop=1;jettySize=auto;html=1;entryX=1;entryY=0.5;entryDx=0;entryDy=0;align=center;" edge="1" parent="1" source="M5c5dAhxw1YWjsHR_SRw-50" target="M5c5dAhxw1YWjsHR_SRw-58">
          <mxGeometry relative="1" as="geometry">
            <Array as="points">
              <mxPoint x="910" y="383" />
              <mxPoint x="910" y="415" />
            </Array>
          </mxGeometry>
        </mxCell>
        <mxCell id="M5c5dAhxw1YWjsHR_SRw-50" value="&lt;h4&gt;Italian Bee&lt;/h4&gt;" style="rounded=0;whiteSpace=wrap;html=1;fillColor=#fff2cc;strokeColor=#d6b656;" vertex="1" parent="1">
          <mxGeometry x="790" y="370" width="110" height="25" as="geometry" />
        </mxCell>
        <mxCell id="M5c5dAhxw1YWjsHR_SRw-51" value="&lt;h5&gt;&lt;i&gt;Apis indicus&lt;/i&gt;&lt;/h5&gt;" style="rounded=0;whiteSpace=wrap;html=1;fillColor=#f8cecc;strokeColor=#b85450;" vertex="1" parent="1">
          <mxGeometry x="790" y="310" width="90" height="20" as="geometry" />
        </mxCell>
        <mxCell id="M5c5dAhxw1YWjsHR_SRw-52" value="&lt;h5&gt;&lt;i&gt;Apis dorsata&lt;/i&gt;&lt;/h5&gt;" style="rounded=0;whiteSpace=wrap;html=1;fillColor=#f8cecc;strokeColor=#b85450;" vertex="1" parent="1">
          <mxGeometry x="790" y="340" width="90" height="20" as="geometry" />
        </mxCell>
        <mxCell id="M5c5dAhxw1YWjsHR_SRw-58" value="&lt;h5&gt;&lt;i&gt;Apis mellifera&lt;/i&gt;&lt;/h5&gt;" style="rounded=0;whiteSpace=wrap;html=1;fillColor=#f8cecc;strokeColor=#b85450;" vertex="1" parent="1">
          <mxGeometry x="790" y="405" width="90" height="20" as="geometry" />
        </mxCell>
        <mxCell id="M5c5dAhxw1YWjsHR_SRw-60" value="&lt;h4&gt;Layers &amp;amp; Broilers&lt;/h4&gt;" style="rounded=0;whiteSpace=wrap;html=1;fillColor=#fff2cc;strokeColor=#d6b656;" vertex="1" parent="1">
          <mxGeometry x="630" y="275" width="120" height="25" as="geometry" />
        </mxCell>
        <mxCell id="M5c5dAhxw1YWjsHR_SRw-66" style="edgeStyle=orthogonalEdgeStyle;rounded=0;orthogonalLoop=1;jettySize=auto;html=1;entryX=1;entryY=0.5;entryDx=0;entryDy=0;align=center;" edge="1" parent="1" source="M5c5dAhxw1YWjsHR_SRw-61" target="M5c5dAhxw1YWjsHR_SRw-64">
          <mxGeometry relative="1" as="geometry">
            <Array as="points">
              <mxPoint x="730" y="360" />
            </Array>
          </mxGeometry>
        </mxCell>
        <mxCell id="M5c5dAhxw1YWjsHR_SRw-67" style="edgeStyle=orthogonalEdgeStyle;rounded=0;orthogonalLoop=1;jettySize=auto;html=1;entryX=1;entryY=0.5;entryDx=0;entryDy=0;align=center;" edge="1" parent="1" source="M5c5dAhxw1YWjsHR_SRw-61" target="M5c5dAhxw1YWjsHR_SRw-65">
          <mxGeometry relative="1" as="geometry">
            <Array as="points">
              <mxPoint x="730" y="390" />
            </Array>
          </mxGeometry>
        </mxCell>
        <mxCell id="M5c5dAhxw1YWjsHR_SRw-61" value="&lt;h4&gt;Local, Foreign and Hybrid Varieties&lt;/h4&gt;" style="rounded=0;whiteSpace=wrap;html=1;fillColor=#fff2cc;strokeColor=#d6b656;" vertex="1" parent="1">
          <mxGeometry x="630" y="310" width="120" height="30" as="geometry" />
        </mxCell>
        <mxCell id="M5c5dAhxw1YWjsHR_SRw-64" value="&lt;h5&gt;&lt;i&gt;Local - Aseel&lt;/i&gt;&lt;/h5&gt;" style="rounded=0;whiteSpace=wrap;html=1;fillColor=#f8cecc;strokeColor=#b85450;" vertex="1" parent="1">
          <mxGeometry x="620" y="350" width="90" height="20" as="geometry" />
        </mxCell>
        <mxCell id="M5c5dAhxw1YWjsHR_SRw-65" value="&lt;h5&gt;&lt;i&gt;Foreign -Leghorn&lt;/i&gt;&lt;/h5&gt;" style="rounded=0;whiteSpace=wrap;html=1;fillColor=#f8cecc;strokeColor=#b85450;" vertex="1" parent="1">
          <mxGeometry x="620" y="380" width="90" height="20" as="geometry" />
        </mxCell>
        <mxCell id="M5c5dAhxw1YWjsHR_SRw-68" value="&lt;h4&gt;Marine Fisheries&lt;/h4&gt;" style="rounded=0;whiteSpace=wrap;html=1;fillColor=#fff2cc;strokeColor=#d6b656;" vertex="1" parent="1">
          <mxGeometry x="930" y="300" width="100" height="20" as="geometry" />
        </mxCell>
        <mxCell id="M5c5dAhxw1YWjsHR_SRw-69" value="&lt;h4&gt;Inland Fisheries&lt;/h4&gt;" style="rounded=0;whiteSpace=wrap;html=1;fillColor=#fff2cc;strokeColor=#d6b656;" vertex="1" parent="1">
          <mxGeometry x="1010" y="270" width="100" height="20" as="geometry" />
        </mxCell>
      </root>
    </mxGraphModel>
  </diagram>
</mxfile>
